<svg xmlns="http://www.w3.org/2000/svg" width="177" height="48" fill="none" viewBox="0 0 177 48">
    <path fill="#fff" d="M42.477 48c-2.78 0-4.971-.675-6.576-2.026-1.605-1.35-2.457-3.337-2.555-5.96-.02-.547-.029-1.389-.029-2.524s.01-1.987.03-2.554c.078-2.584.93-4.57 2.554-5.96 1.644-1.409 3.836-2.114 6.576-2.114 2.72 0 4.893.705 6.517 2.114 1.644 1.39 2.505 3.376 2.584 5.96.039 1.135.058 1.986.058 2.554 0 .587-.02 1.429-.058 2.525-.098 2.622-.95 4.609-2.555 5.96C47.438 47.324 45.256 48 42.477 48zm0-4.404c1.018 0 1.83-.303 2.436-.91.607-.626.93-1.575.97-2.847.038-1.136.058-1.948.058-2.437 0-.49-.02-1.282-.059-2.378-.039-1.272-.362-2.212-.969-2.819-.606-.626-1.418-.939-2.436-.939-1.038 0-1.86.313-2.466.94-.607.606-.93 1.546-.97 2.818-.019.548-.028 1.34-.028 2.378 0 1.057.01 1.869.029 2.437.039 1.272.362 2.22.969 2.847.606.607 1.428.91 2.466.91zM63.551 48c-2.838 0-5.06-.685-6.664-2.055-1.605-1.39-2.456-3.366-2.554-5.93-.02-.548-.03-1.439-.03-2.672s.01-2.133.03-2.7c.078-2.467.93-4.375 2.554-5.726 1.644-1.37 3.865-2.055 6.664-2.055 1.879 0 3.513.304 4.903.91 1.409.607 2.476 1.39 3.2 2.35.743.939 1.135 1.907 1.174 2.906a.647.647 0 0 1-.205.47.598.598 0 0 1-.44.175h-4.551c-.196 0-.353-.029-.47-.088a1.603 1.603 0 0 1-.294-.323c-.234-.548-.616-1.017-1.144-1.409-.51-.391-1.234-.587-2.173-.587-2.27 0-3.445 1.174-3.523 3.523-.02.548-.03 1.39-.03 2.525s.01 1.986.03 2.554c.078 2.485 1.272 3.728 3.582 3.728 1.135 0 2.035-.283 2.7-.851.666-.568.999-1.429.999-2.584v-.528h-2.613a.82.82 0 0 1-.558-.206.819.819 0 0 1-.205-.557v-2.29c0-.215.068-.392.205-.529a.762.762 0 0 1 .558-.235h7.457a.67.67 0 0 1 .528.235.67.67 0 0 1 .235.529v3.405c0 1.664-.391 3.102-1.174 4.316-.764 1.194-1.85 2.114-3.259 2.76-1.409.626-3.053.939-4.932.939zM74.561 47.706a.666.666 0 0 1-.44-.176.666.666 0 0 1-.176-.44.89.89 0 0 1 .029-.264l6.84-18.819c.196-.567.588-.851 1.175-.851h4.58c.587 0 .978.284 1.174.851l6.84 18.819a.89.89 0 0 1 .03.264c0 .156-.069.303-.206.44a.564.564 0 0 1-.411.176h-3.817c-.47 0-.802-.215-.998-.645l-1.057-2.848h-7.691l-1.057 2.848c-.196.43-.529.645-.998.645H74.56zm7.105-7.897h5.225l-2.613-7.486-2.612 7.486zM97.57 47.706a.782.782 0 0 1-.529-.205.782.782 0 0 1-.205-.529V27.89c0-.215.068-.392.205-.529a.782.782 0 0 1 .529-.205h4.11c.215 0 .391.069.528.206a.716.716 0 0 1 .206.528v15.207h8.807a.67.67 0 0 1 .528.235.669.669 0 0 1 .235.529v3.111a.669.669 0 0 1-.235.529.715.715 0 0 1-.528.205H97.57zM115.173 47.706a.783.783 0 0 1-.529-.205.781.781 0 0 1-.205-.529V27.89c0-.215.068-.392.205-.529a.783.783 0 0 1 .529-.205h4.198c.215 0 .391.069.528.206a.716.716 0 0 1 .206.528v19.082a.782.782 0 0 1-.206.529.715.715 0 0 1-.528.205h-4.198zM124.834 47.706a.783.783 0 0 1-.528-.205.782.782 0 0 1-.206-.529V27.92c0-.215.069-.391.206-.528a.67.67 0 0 1 .528-.235h13.652a.67.67 0 0 1 .528.235.67.67 0 0 1 .235.528v3.112a.67.67 0 0 1-.235.529.715.715 0 0 1-.528.205h-8.984v4.08h8.397a.67.67 0 0 1 .528.236.67.67 0 0 1 .235.528v3.112a.669.669 0 0 1-.235.529.715.715 0 0 1-.528.205h-8.397v6.517a.781.781 0 0 1-.205.529.715.715 0 0 1-.529.205h-3.934zM143.068 47.706a.78.78 0 0 1-.528-.205.782.782 0 0 1-.206-.529V27.92c0-.215.069-.391.206-.528a.67.67 0 0 1 .528-.235h13.857a.67.67 0 0 1 .529.235.672.672 0 0 1 .235.528v2.907a.672.672 0 0 1-.235.528.715.715 0 0 1-.529.206h-9.277v3.728h8.631a.67.67 0 0 1 .529.235.672.672 0 0 1 .235.528v2.672a.764.764 0 0 1-.235.558.715.715 0 0 1-.529.205h-8.631v3.817h9.512c.215 0 .392.078.529.235a.671.671 0 0 1 .234.528v2.906a.671.671 0 0 1-.234.529.717.717 0 0 1-.529.205h-14.092zM18.93 47.706c-.298 0-.566-.104-.805-.312a1.183 1.183 0 0 1-.313-.802v-9.491L7.474 17.94a.932.932 0 0 1-.135-.49c0-.238.09-.446.269-.624.209-.208.433-.312.671-.312h5.908c.417 0 .76.104 1.029.312.269.208.462.43.582.668l6.22 11.185 6.221-11.185c.12-.238.313-.46.582-.668.268-.208.611-.312 1.03-.312h5.906c.24 0 .448.104.627.312.209.178.313.386.313.623a.932.932 0 0 1-.134.49L26.225 37.102v9.491c0 .327-.12.595-.358.802-.209.208-.477.312-.806.312h-6.13z"/>
    <circle cx="33.945" cy="11.927" r="11.927" fill="#fff"/>
    <circle cx="9.174" cy="16.514" r="9.174" fill="#fff"/>
    <path fill="#00806D" d="M161.468 18.349c0 5.066-4.587 9.174-4.587 9.174s-4.588-4.108-4.588-9.174c0-5.067 4.588-9.175 4.588-9.175s4.587 4.108 4.587 9.175z"/>
    <path fill="#00806D" d="M167.22 29.606c-4.89 1.327-10.055-2.024-10.055-2.024s2.762-5.503 7.652-6.83c4.89-1.328 10.056 2.024 10.056 2.024s-2.763 5.503-7.653 6.83z"/>
</svg>
