<svg xmlns="http://www.w3.org/2000/svg" width="540" height="589" fill="none" viewBox="0 0 540 589">
    <g clip-path="url(#a)">
        <path fill="#3F3D56" d="M540 530.386C540 548.263 419.117 589 270 589 120.883 589 0 548.263 0 530.386c0-17.876 120.883-6.123 270-6.123 149.117 0 270-11.753 270 6.123z"/>
        <path fill="#000" d="M540 530.386C540 548.263 419.117 589 270 589 120.883 589 0 548.263 0 530.386c0-17.876 120.883-6.123 270-6.123 149.117 0 270-11.753 270 6.123z" opacity=".1"/>
        <path fill="#009688" d="M76.893 292.432c6.274 0 11.36-5.091 11.36-11.372s-5.086-11.373-11.36-11.373c-6.273 0-11.36 5.092-11.36 11.373s5.087 11.372 11.36 11.372zM126.699 386.039c6.274 0 11.359-5.091 11.359-11.372 0-6.282-5.085-11.373-11.359-11.373-6.273 0-11.359 5.091-11.359 11.373 0 6.281 5.086 11.372 11.359 11.372zM88.252 362.419c6.274 0 11.36-5.092 11.36-11.373s-5.086-11.373-11.36-11.373c-6.273 0-11.359 5.092-11.359 11.373s5.086 11.373 11.36 11.373z"/>
        <path fill="#CFCCE0" d="M91.876 512.471c-.2-.328-4.93-8.232-6.568-24.645-1.504-15.059-.537-40.441 12.61-75.847 24.909-67.074-5.74-121.193-6.053-121.732l1.512-.878c.08.137 7.988 13.935 12.66 35.906a156.826 156.826 0 0 1-6.48 87.314c-24.865 66.96-6.38 98.658-6.19 98.971l-1.491.911zM82.136 287.184a12.239 12.239 0 0 1-11.302-7.561 12.263 12.263 0 0 1 2.652-13.348 12.229 12.229 0 0 1 13.331-2.654 12.234 12.234 0 0 1 5.49 4.51 12.263 12.263 0 0 1 2.062 6.805 12.269 12.269 0 0 1-3.587 8.656 12.242 12.242 0 0 1-8.646 3.592zm0-22.746a10.48 10.48 0 0 0-9.687 6.48 10.512 10.512 0 0 0 2.273 11.441 10.483 10.483 0 0 0 11.427 2.276 10.506 10.506 0 0 0 6.473-9.699 10.518 10.518 0 0 0-3.075-7.42 10.49 10.49 0 0 0-7.411-3.078z"/>
        <path fill="#CFCCE0" d="M117.961 328.301c6.274 0 11.359-5.092 11.359-11.373s-5.085-11.373-11.359-11.373c-6.273 0-11.359 5.092-11.359 11.373s5.086 11.373 11.359 11.373zM93.495 357.17a12.22 12.22 0 0 1-6.796-2.064 12.26 12.26 0 0 1-1.854-18.844 12.216 12.216 0 0 1 13.331-2.655 12.242 12.242 0 0 1 7.552 11.315 12.265 12.265 0 0 1-3.587 8.657 12.24 12.24 0 0 1-8.646 3.591zm0-22.746a10.493 10.493 0 0 0-9.687 6.481 10.508 10.508 0 0 0 2.273 11.44 10.476 10.476 0 0 0 16.132-1.59 10.503 10.503 0 0 0 1.768-5.833 10.514 10.514 0 0 0-3.075-7.419 10.487 10.487 0 0 0-7.41-3.079zM123.204 380.79a12.22 12.22 0 0 1-6.796-2.064 12.244 12.244 0 0 1-4.506-5.496 12.262 12.262 0 0 1 2.652-13.348 12.224 12.224 0 0 1 18.821 1.856 12.252 12.252 0 0 1 2.062 6.805 12.271 12.271 0 0 1-3.587 8.656 12.237 12.237 0 0 1-8.646 3.591zm0-22.745a10.49 10.49 0 0 0-9.687 6.48 10.505 10.505 0 0 0 2.273 11.441 10.478 10.478 0 0 0 16.132-1.591 10.507 10.507 0 0 0 1.767-5.832 10.513 10.513 0 0 0-3.074-7.42 10.491 10.491 0 0 0-7.411-3.078zM84.757 416.658c6.274 0 11.36-5.091 11.36-11.372s-5.086-11.373-11.36-11.373c-6.273 0-11.359 5.092-11.359 11.373s5.086 11.372 11.36 11.372zM98.738 512.89s-11.36-27.995 22.718-48.991L98.738 512.89zM84.768 512.382s-5.17-29.77-45.182-29.515l45.182 29.515z"/>
        <path fill="#009688" d="M494.858 523.388H301.512s-3.919-57.55 19.269-58.204c23.189-.654 20.576 25.505 49.643-10.464s64.34-34.007 68.912-12.752c4.573 21.254-8.818 38.257 15.677 33.025 24.495-5.231 59.768 8.502 39.845 48.395z"/>
        <path fill="#F2F2F2" d="M394.921 523.401l-.652-.026c1.522-37.891 9.448-62.236 15.829-75.986 6.928-14.931 13.605-20.975 13.671-21.034l.434.488c-.065.059-6.664 6.043-13.537 20.873-6.346 13.692-14.228 37.937-15.745 75.685zM464.898 523.479l-.627-.183c7.551-25.947 25.331-42.33 25.51-42.492l.439.484c-.177.161-17.825 16.428-25.322 42.191zM331.965 523.433l-.647-.09c2.562-18.498-2.066-32.85-6.399-41.632-4.692-9.509-10.045-14.702-10.099-14.754l.452-.472c.055.052 5.491 5.326 10.233 14.936 4.373 8.865 9.045 23.349 6.46 42.012z"/>
        <path fill="#CFCCE0" d="M521.099 524.263H280.658l-.056-.816c-.138-2.028-3.205-49.879 12.281-66.952 3.462-3.817 7.632-5.82 12.394-5.954 10.094-.288 16.438 3.498 21.554 6.536 9.644 5.728 16.015 9.512 39.178-19.151 25.093-31.052 52.168-37.733 67.732-34.018 10.056 2.401 16.987 9.185 19.016 18.614 1.921 8.929 1.309 17.319.818 24.06-.527 7.212-.942 12.909 2.017 15.491 2.47 2.154 7.4 2.35 15.514.616 16.504-3.524 39.533-.508 51.091 14.444 6.219 8.045 11.118 22.667-.857 46.646l-.241.484zm-238.8-1.75h237.718c8.923-18.126 9.202-33.438.799-44.309-10.604-13.717-32.85-17.327-49.346-13.803-8.815 1.883-14.068 1.572-17.026-1.009-3.618-3.156-3.174-9.238-2.613-16.938.484-6.629 1.086-14.88-.782-23.563-1.881-8.744-8.337-15.043-17.713-17.281-15.068-3.599-41.386 2.997-65.968 33.416-24.113 29.838-31.377 25.526-41.428 19.556-5.18-3.076-11.061-6.564-20.613-6.293-4.27.121-8.021 1.932-11.151 5.382-13.917 15.344-12.218 58.373-11.877 64.842z"/>
        <path fill="#3F3D56" d="M270 562.755c149.117 0 270-14.492 270-32.369 0-17.876-120.883-32.368-270-32.368-149.117 0-270 14.492-270 32.368 0 17.877 120.883 32.369 270 32.369z"/>
        <path fill="#2F2E41" d="M275.937 106.947s-13.498-4.827-22.176 14.479c-8.677 19.307-22.175 40.543-22.175 40.543l7.713 1.931s1.928-13.514 6.749-15.445l-1.928 17.376s57.849 20.271 83.881-1.931l-.964-6.757s3.857.965 3.857 6.757l2.892-2.896s-2.892-5.792-11.57-13.514c-5.695-5.069-7.652-14.712-8.325-20.741a25.113 25.113 0 0 0-5.771-13.668c-5.767-6.691-16.274-13.803-32.183-6.134z"/>
        <path fill="#FFB9B9" d="M261.699 182.641l-13.98-17.496-10.486-35.868 40.194-42.867s8.738-33.244.874-31.494-9.612 26.245-9.612 26.245l-50.679 39.367s5.243 55.115 20.097 74.361l11.359 35.868 12.233-48.116z"/>
        <path fill="#FFB9B9" d="M300.146 182.641l13.98-17.496 10.486-35.868-40.195-42.867s-8.737-33.244-.873-31.494 9.611 26.245 9.611 26.245l50.68 39.367s-5.243 55.115-20.097 74.361l-11.359 35.868-12.233-48.116z"/>
        <path fill="#FFB9B9" d="M280.922 167.769c12.547 0 22.719-10.183 22.719-22.745 0-12.562-10.172-22.746-22.719-22.746s-22.718 10.184-22.718 22.746 10.171 22.745 22.718 22.745z"/>
        <path fill="#FFB9B9" d="M270.437 157.271s.874 18.372-4.369 24.495c-5.243 6.124-10.485 37.618 14.854 38.493 25.34.875 22.719-26.245 22.719-26.245l-5.243-14.872s-7.864-11.373-5.243-21.871h-22.718zM246.845 361.107l18.786 5.686s15.291-9.186 15.291-.437c0 8.748-5.242 20.121-3.495 27.994 1.748 7.874 5.243 27.12 0 27.12s-15.728-34.118-15.728-34.118l-17.476-9.624 2.622-16.621zM270.437 483.583l-6.99 27.12s-6.117 7.873 0 11.372c2.87 1.642 4.97 5.018 6.391 8.139a14.934 14.934 0 0 0 14.675 8.888c2.982-.247 5.495-1.428 6.106-4.496a7.048 7.048 0 0 0-1.353-5.513c-6.446-8.72-7.907-14.454-7.907-14.454l2.622-30.619-13.544-.437z"/>
        <path fill="#2F2E41" d="M253.517 149.063s7.713-10.618 14.463-12.549c6.749-1.931 7.713-11.584 7.713-11.584s17.355 19.307 27.96 20.272c10.606.965.964-23.168.964-23.168l-19.283-4.826-18.319 1.931-14.462 9.653.964 20.271zM238.981 294.62l-3.496 6.998s-84.757 27.12-77.767 52.49c6.991 25.37 46.311 18.371 46.311 18.371l43.689 7.874 4.369-19.246-30.582-7.874 52.427-19.246 1.748 89.233-6.991 63.862 17.476 1.75s19.223-58.614 16.602-83.109c0 0 32.33-99.731 13.981-114.603-18.35-14.872-77.767 3.5-77.767 3.5z"/>
        <path fill="#CFCCE0" d="M281.947 194.026l-13.634-16.497-9.235 4.237-9.612 30.619s-7.864 14.873 1.748 30.62c0 0 1.747 10.498-.874 13.122-2.621 2.625-3.495 19.246-3.495 19.246l-11.359 21.871s64.66 11.373 83.883-4.374c0 0-10.087-37.234-3.971-48.607 6.117-11.373 6.991-28.807 0-36.681-6.99-7.873-14.378-28.44-14.378-28.44l-4.232-2.71-14.841 17.594zM332.92 63.412h-8.38v-8.39h-.761v8.39h-8.381v.762h8.381v8.39h.761v-8.39h8.38v-.762zM253.274 45.869h-8.38v-8.39h-.762v8.39h-8.38v.762h8.38v8.39h.762v-8.39h8.38v-.762zM291.504 8.39h-8.38V0h-.762v8.39h-8.38v.763h8.38v8.39h.762v-8.39h8.38V8.39z"/>
    </g>
    <defs>
        <clipPath id="a">
            <path fill="#fff" d="M0 0h540v589H0z"/>
        </clipPath>
    </defs>
</svg>
