<svg xmlns="http://www.w3.org/2000/svg" width="33" height="27" fill="none" viewBox="0 0 33 27">
    <path fill="#fff" d="M33 3.17c-1.233.549-2.543.908-3.885 1.063A6.807 6.807 0 0 0 32.093.49a13.623 13.623 0 0 1-4.297 1.643A6.764 6.764 0 0 0 22.853 0a6.764 6.764 0 0 0-6.592 8.306A19.22 19.22 0 0 1 2.309 1.23a6.772 6.772 0 0 0 2.093 9.034 6.807 6.807 0 0 1-3.068-.844v.085a6.77 6.77 0 0 0 5.431 6.637 6.786 6.786 0 0 1-3.062.118 6.79 6.79 0 0 0 6.322 4.703A13.581 13.581 0 0 1 0 23.766a19.147 19.147 0 0 0 10.38 3.042c12.448 0 19.261-10.316 19.261-19.261 0-.297-.006-.586-.018-.876a13.589 13.589 0 0 0 3.375-3.5L33 3.17z"/>
</svg>
